PathFileType	4	(X/Y/Z)	C:/Users/beibeiliu/ov580/test_trc\sequence.39_training_dense_right.trc
DataRate	CameraRate	NumFrames	NumMarkers	Units	OrigDataRate	OrigDataStartFrame	OrigNumFrames
120	120	25	19	mm	120	55	82
Frame#	Time	ThumbCMC			ThumbMCP			ThumbIP			ThumbTip			IndexMCP			IndexPIP			IndexTip			MiddleMCP			MiddlePIP			MiddleTip			RingMCP			RingPIP			RingTip			PinkyMCP			PinkyPIP			PinkyTip			BackHand1			BackHand2			BackHand3	
		X0	Y0	Z0	X1	Y1	Z1	X2	Y2	Z2	X3	Y3	Z3	X4	Y4	Z4	X5	Y5	Z5	X6	Y6	Z6	X7	Y7	Z7	X8	Y8	Z8	X9	Y9	Z9	X10	Y10	Z10	X11	Y11	Z11	X12	Y12	Z12	X13	Y13	Z13	X14	Y14	Z14	X15	Y15	Z15	X16	Y16	Z16	X17	Y17	Z17	X18	Y18	Z18	
54	0.45	74.7114	68.6745	70.1683	54.4867	84.8813	55.7967	39.0868	92.4298	36.8794	25.7695	98.5871	25.7499	46.5323	60.3652	8.56921	24.8219	75.7375	2.23319	8.10307	88.8373	12.8858	34.5285	46.7796	9.91613	9.72754	65.8775	10.9915	7.86494	80.4108	34.9229	21.9279	38.1425	22.8	4.51388	55.147	30.4265	15.4838	67.8525	52.5648	14.0998	27.946	39.562	5.50899	49.0906	45.9363	23.3882	60.8976	63.8854	59.9391	20.8765	53.88	72.52	17.8565	79.8702	82.9872	38.4382	56.0228	
55	0.458333	68.0871	38.7669	65.4697	50.0667	56.628	47.2866	37.2171	66.5808	34.2593	18.9149	71.1104	19.8233	33.5308	29.553	10.7798	13.5678	45.6513	4.45622	2.14526	65.878	11.6814	16.2173	17.8219	17.2557	-2.01472	40.9353	13.3325	1.98504	62.4896	38.7211	3.39367	12.691	35.1776	-3.45606	41.7369	34.0611	7.73388	51.8387	57.271	-1.51713	9.71031	51.8946	-8.43569	34.9705	53.8853	13.969	45.4414	61.3361	39.1947	-6.44825	63.0279	55.3889	-4.85019	87.5617	68.137	8.08793	58.6331	
56	0.466667	65.1634	23.307	64.5664	48.8783	44.1041	46.5119	34.4158	50.8351	31.4867	18.9892	58.9991	18.8762	24.2576	13.598	14.5421	11.7374	31.4228	5.20661	0.52332	57.4634	11.8983	8.51372	4.95138	22.0163	-8.40999	27.5505	16.5473	-0.625022	52.7978	35.8078	-1.35468	4.27628	38.2865	-12.4673	31.1681	38.4024	3.50945	43.0892	56.729	-8.01444	3.06876	55.467	-14.1627	27.4564	56.009	8.36474	35.842	66.9565	29.9779	-16.3302	71.8914	47.3748	-16.7955	91.2106	57.0975	-8.53194	63.8062	
57	0.475	67.9116	26.2969	65.163	51.2565	46.4525	43.6354	35.8564	55.9082	27.5309	22.2083	60.2775	20.7287	29.0187	16.5032	13.9624	10.7654	35.3229	5.38418	1.50902	60.4856	14.092	7.81991	7.97435	23.1964	-6.81158	34.6898	16.1965	-0.101486	55.2607	37.1112	-2.74169	6.38439	40.3203	-10.5992	32.9651	36.8097	9.65805	46.0436	53.7944	-11.417	5.83661	56.5187	-11.0163	28.8328	51.7765	13.0745	38.4541	65.0804	33.7044	-13.193	69.6943	45.9874	-14.4544	89.2243	57.6528	-6.61786	64.3096	
58	0.483333	69.6199	40.8845	62.2652	55.1355	62.7432	46.9304	41.741	72.1464	30.7552	21.8835	74.7349	19.5487	33.3249	32.1694	12.5561	16.5385	53.6005	2.30166	5.67795	74.5094	12.322	16.2726	21.0736	19.1445	-4.4774	46.9338	16.1748	6.76654	68.5103	37.8365	6.37899	19.2126	31.9351	-6.42302	44.2536	36.7976	10.2427	55.316	53.2772	-3.9991	13.6214	51.5138	-8.35258	38.1471	49.9453	12.2861	49.2256	63.3798	38.2057	-1.01879	67.2384	55.0461	-2.68415	88.6637	65.8	8.47492	61.826	
59	0.491667	70.8181	63.8509	60.4231	54.5348	86.2969	43.5395	35.9845	86.8243	27.5956	20.9212	92.3146	16.8013	43.4567	57.1262	3.76464	20.7479	69.9896	-2.53006	2.00709	86.4874	10.1128	24.3243	41.3186	6.59921	2.39349	61.3957	7.11111	4.57624	77.1636	32.9012	13.6201	31.8283	20.9543	-2.01131	54.5913	27.2251	10.8371	63.3815	49.67	8.20982	21.6346	38.5917	-4.16806	44.0605	39.606	13.2285	56.4555	52.7636	49.4362	17.0857	50.6604	65.7946	15.3443	77.2654	75.2465	31.2221	54.7662	
60	0.5	67.4747	87.1874	52.7508	45.794	96.7573	34.288	31.1511	102.62	16.4734	14.4551	104.007	0.731322	47.9279	74.5056	-12.0299	22.226	85.7017	-17.5053	-0.00858707	94.5845	-4.89821	41.7862	57.1178	-10.4379	13.8659	70.0921	-13.7454	7.35775	77.2983	21.4861	26.6514	42.0259	-2.00351	7.83869	56.6412	6.65082	15.5283	64.9158	32.7662	24.9037	26.9735	14.8708	10.0091	48.8413	15.3523	15.151	58.4928	35.8369	65.7389	32.0923	33.79	76.6153	33.3959	59.7607	82.5222	55.9216	38.9697	
61	0.508333	55.7739	92.9933	30.2154	31.9955	100.993	13.7889	20.2694	100.685	-8.72476	12.0603	94.0601	-25.1673	56.583	87.6866	-30.2998	28.913	82.593	-43.6174	5.38007	84.3236	-35.6695	54.9994	63.1584	-33.7598	23.637	67.9592	-41.3008	11.7563	70.1759	-12.2214	48.7698	49.6947	-29.383	23.8615	52.4983	-27.7863	20.1726	58.0016	0.729647	47.9972	33.2108	-19.5095	26.5989	38.5126	-18.0371	26.3008	56.0772	6.56137	78.95	46.9983	10.2206	84.4713	48.1662	37.8508	83.6049	77.3639	23.3222	
62	0.516667	44.1548	87.4318	5.93279	25.4025	83.1643	-17.491	18.3324	82.28	-43.345	12.4374	78.3752	-60.026	59.9448	88.3654	-54.1907	42.651	78.6294	-72.1945	15.0514	67.2205	-72.0698	66.7744	69.2991	-64.4541	40.9534	61.0259	-73.0477	23.9917	51.3856	-44.6533	69.8102	50.1435	-55.2042	40.4291	46.5957	-58.0272	33.4625	46.5243	-28.86	74.006	33.2695	-45.7556	47.8983	34.7084	-49.082	39.6213	46.4034	-26.6666	88.7029	59.0212	-8.7336	89.5278	55.9411	18.7681	77.7169	82.6787	1.8651	
63	0.525	40.7026	76.9046	-17.7928	27.2874	68.5873	-42.7046	20.5659	67.4081	-65.2325	17.4276	61.8414	-87.434	65.0716	87.0962	-74.2049	49.5327	79.4004	-98.5089	35.271	55.9169	-103.29	77.5069	70.5839	-80.1071	59.9684	56.753	-96.8796	38.6138	37.1301	-73.4963	84.1473	51.9195	-73.2684	61.4163	37.8168	-80.8101	48.2708	34.9472	-57.3214	90.0556	36.5815	-63.8861	68.2457	31.9446	-71.0701	51.1524	34.7235	-50.1206	95.5494	64.8826	-28.0545	89.9066	59.8754	2.25226	73.0109	83.7645	-15.6529	
64	0.533333	41.2064	67.1487	-24.4559	26.4832	58.9102	-55.1299	19.2687	54.354	-72.6992	16.9834	50.0136	-95.2413	67.5323	86.9621	-83.0915	63.0672	77.8234	-113.098	55.2819	58.7016	-127.383	81.4657	70.4937	-90.583	72.1918	50.2597	-109.657	49.466	31.3431	-97.4079	90.7917	49.814	-83.2725	69.4465	28.9078	-91.016	55.9007	27.7887	-71.0657	96.3478	35.509	-72.9719	74.9679	23.8348	-78.0465	59.461	25.1229	-58.1519	98.1264	62.4969	-37.4046	92.1988	59.6362	-7.76635	73.5774	78.0976	-24.3518	
65	0.541667	41.1183	63.5468	-28.0385	29.311	51.1543	-51.9883	18.5939	48.3473	-71.0648	12.285	42.6605	-88.7249	70.2399	80.1734	-84.7576	72.8936	72.0032	-112.538	68.069	62.8901	-131.288	88.8148	62.8427	-94.3524	78.2442	46.4294	-112.823	56.2649	26.2486	-105.789	91.1586	45.5045	-86.8115	73.131	27.6016	-93.6254	57.537	23.7019	-70.5388	97.6699	29.854	-74.6368	76.6592	16.2539	-75.3712	63.3598	22.569	-58.5837	98.3624	59.1049	-35.9024	90.5579	57.2466	-8.51353	77.1424	76.0291	-28.557	
66	0.55	43.1628	60.9551	-24.4815	29.7902	47.8833	-45.1284	17.294	45.7953	-67.4558	11.081	40.0798	-82.992	73.7398	73.0427	-84.9998	72.4524	71.5892	-107.141	70.0288	60.8423	-132.55	88.8035	58.6004	-87.791	79.1259	40.8172	-110.665	56.8647	17.449	-100.523	94.3344	37.6789	-85.4178	73.411	18.8988	-89.1658	59.4715	17.5906	-68.3434	100.158	23.993	-70.6358	80.9969	12.2744	-74.5483	64.9984	15.5848	-51.5051	103.429	54.135	-36.4101	95.585	52.2478	-8.45206	77.8923	70.2691	-23.6585	
67	0.558333	45.9139	58.5472	-18.2611	32.0823	45.9669	-40.3757	23.4785	41.9846	-62.32	11.9214	37.6896	-76.6089	75.7056	68.9271	-79.8621	71.9178	65.142	-104.778	68.134	51.4764	-125.594	86.6128	54.1881	-87.8322	78.442	35.6525	-105.426	57.5199	14.2056	-95.3189	96.6805	34.0257	-76.6497	76.0998	17.1545	-86.4137	60.7917	12.4112	-63.67	102.391	17.0979	-65.3891	76.6049	8.46891	-69.3675	64.7332	10.975	-49.5552	103.466	49.1184	-29.5998	101.026	46.8239	-1.30869	80.4019	68.4646	-21.6318	
68	0.566667	49.2762	50.7661	-13.459	36.4913	39.6497	-35.0412	23.0578	36.5105	-57.986	18.3184	30.4664	-76.4219	73.2597	62.0186	-74.3633	69.317	54.5187	-99.495	53.9449	38.6832	-115.316	87.9519	46.2115	-85.3158	74.8993	28.5655	-100.266	54.5557	7.44011	-86.5229	96.7001	27.5599	-75.9309	75.0646	12.8512	-83.5119	58.4928	6.84816	-59.0344	101.761	13.7832	-64.8203	82.8844	4.42799	-70.1626	64.0591	6.3941	-48.5698	103.794	44.8217	-27.0891	103.337	41.9117	-2.64487	86.188	59.6326	-18.186	
69	0.575	52.011	39.865	-13.816	36.6331	29.3999	-33.9749	28.1836	25.2483	-59.7724	24.5834	17.5619	-74.8933	62.2237	51.3594	-77.0362	54.6329	38.3638	-96.7125	41.3832	17.4297	-104.427	80.3689	39.0511	-81.4833	66.4842	20.0974	-98.5189	53.2615	-6.01655	-83.075	93.7339	22.5856	-73.3425	74.7889	6.62788	-84.4208	60.5516	-9.16954	-63.6101	99.7698	9.60869	-65.5872	86.7405	-6.90918	-71.677	66.817	-9.92749	-56.4217	104.111	36.8768	-28.9977	98.781	37.4454	1.3048	79.0914	52.0142	-12.9236	
70	0.583333	42.8571	24.2085	-6.46891	28.5521	13.0066	-30.9802	17.4092	8.70448	-53.0158	16.2524	1.534	-72.3065	49.9014	31.7557	-75.1165	39.4883	17.4377	-91.9326	27.4559	-8.99732	-96.8675	71.5905	25.5912	-78.1764	57.6955	9.96955	-97.3391	49.16	-20.414	-91.4073	83.3537	15.738	-71.067	71.6609	-1.48453	-88.0684	54.7943	-21.5899	-77.6912	96.5395	4.02747	-63.9345	84.7571	-14.0984	-75.3801	66.5259	-22.5633	-70.0983	93.1727	27.3137	-28.3373	91.6212	28.8568	-1.91614	70.4852	42.5716	-13.5512	
71	0.591667	33.3301	9.05754	-1.54345	15.5425	-3.01006	-20.2864	11.0798	-9.08084	-44.9514	2.9194	-16.4461	-64.5928	34.5641	15.8775	-67.458	30.0048	-1.95271	-87.7231	20.3588	-21.6587	-95.3145	54.8786	13.2551	-76.2895	49.564	-1.12338	-95.7954	40.7741	-33.377	-101.397	74.5159	6.1576	-68.9211	71.5618	-9.81225	-87.7348	55.8112	-34.2956	-92.979	92.4661	-3.73711	-55.9235	87.8238	-14.4282	-75.0117	76.1603	-31.6625	-80.9599	82.8989	20.0139	-22.0901	81.5127	20.5544	6.14203	56.908	26.8572	-6.54755	
72	0.6	29.6223	-3.95644	9.63456	11.271	-15.4987	-13.86	3.29328	-21.0997	-34.758	-5.17692	-28.3004	-51.7676	29.4729	3.97429	-58.1769	22.387	-10.6176	-83.1986	17.5889	-29.4776	-97.1166	48.9248	2.36985	-68.8088	46.7934	-9.57523	-92.1162	40.2581	-29.7109	-108.096	67.7545	-1.67441	-61.1547	62.8493	-13.5853	-85.509	61.1844	-32.3933	-100.955	85.7953	-8.9694	-49.993	85.4917	-19.9489	-72.7097	84.8826	-34.6532	-88.3157	74.9068	11.0687	-17.3746	77.3727	12.6501	5.13479	47.2509	16.6098	-5.30963	
73	0.608333	29.9242	-4.26539	10.1205	8.9388	-16.3655	-5.49894	3.05646	-22.1752	-27.251	-7.0777	-26.82	-42.8692	27.6141	3.13783	-55.312	18.709	-6.73302	-76.5184	15.8866	-19.131	-94.8554	47.8743	1.74353	-64.4807	46.334	-6.77947	-84.7168	42.4194	-20.8929	-108.396	66.9584	-2.89863	-57.2621	68.2584	-11.9004	-82.2904	64.3031	-23.6127	-100.682	88.0592	-10.9288	-47.2529	91.5967	-19.1422	-66.666	92.1538	-25.7228	-87.2825	72.2807	8.89658	-16.0737	76.3044	11.6363	11.7273	48.4891	14.5926	1.59797	
74	0.616667	32.776	1.28293	12.1612	14.8802	-9.71	-8.00046	5.52553	-15.3726	-25.3383	-4.04817	-20.6719	-42.7278	29.8428	8.61856	-54.2075	22.6987	-0.168935	-77.8147	22.0959	-12.3993	-95.5045	50.0676	6.14117	-64.1274	50.0445	-2.70303	-86.7455	48.292	-12.8347	-107.708	70.6081	2.24476	-56.3463	70.0435	-8.53734	-82.9607	67.786	-15.1437	-97.274	90.2959	-5.3326	-46.5251	92.8534	-13.1386	-67.2115	92.9391	-17.2421	-85.1566	77.6353	15.1505	-17.0145	79.0729	18.4122	12.7561	51.0836	22.3806	-2.18536	
75	0.625	32.7354	5.30101	12.7315	14.8026	-6.68381	-3.32473	4.79795	-12.6552	-22.2754	-7.43168	-17.3279	-41.506	30.5881	10.5678	-55.0856	24.8089	1.66559	-75.8493	18.6638	-9.95195	-94.5664	49.8671	10.4731	-59.6521	47.3753	1.04618	-86.1845	46.9156	-12.905	-110.31	71.9433	3.33194	-59.9219	68.768	-3.10016	-76.6631	67.7041	-13.7544	-96.9241	91.1224	-2.09761	-44.163	93.8119	-8.47639	-60.4651	96.4729	-12.4329	-81.737	79.1488	18.3115	-15.4653	80.454	20.944	12.7894	50.8896	27.2547	-0.682463	
76	0.633333	33.8708	5.47804	16.5008	14.7667	-6.21566	-5.69278	6.4738	-13.1151	-22.4134	-7.07363	-19.1604	-37.0442	34.3808	11.6594	-50.0505	23.1321	2.36315	-71.8914	21.8003	-13.2992	-95.0277	50.5565	9.98708	-59.6384	49.7631	0.725418	-83.7468	45.9152	-11.898	-104.383	70.4113	4.40021	-53.9421	70.1531	-4.23117	-78.6479	67.8512	-13.6256	-95.0934	89.6424	-1.88987	-42.9092	92.5612	-7.48779	-59.1819	93.616	-10.1634	-80.9604	77.6559	17.6522	-8.40277	83.3253	23.2569	11.5753	54.6275	26.1365	5.99021	
77	0.641667	34.1831	5.31194	18.2512	20.341	-8.40952	-0.187872	8.04299	-13.5244	-18.7265	-3.88847	-20.6267	-34.9419	30.2989	10.6885	-51.0906	25.9737	0.00717524	-70.6497	24.4235	-13.1747	-90.7084	53.6931	7.79368	-58.1512	48.3779	-0.337467	-79.0152	50.4745	-14.1889	-102.629	75.8231	2.45071	-56.3564	69.5116	-4.40006	-72.9086	67.449	-12.6075	-91.1567	95.6121	-4.21222	-40.3995	96.8722	-10.2039	-58.7912	98.6438	-14.1367	-79.1619	79.411	16.4107	-9.45264	85.0947	20.2533	13.7767	58.2635	24.1588	5.11264	
78	0.65	35.321	7.82682	21.7734	19.4884	-5.87743	3.91619	6.53013	-10.9337	-21.2469	1.07247	-17.2816	-37.6168	36.3256	12.5758	-45.431	26.6363	3.79166	-68.1642	25.9427	-10.1789	-88.3474	56.0654	11.0903	-52.5993	55.5839	1.1799	-77.3262	52.0084	-11.591	-99.4022	77.5238	4.626	-51.8728	76.2286	-2.79456	-73.3166	71.4942	-12.1777	-90.7949	96.7086	-2.03765	-41.2584	99.3748	-7.18234	-54.2217	98.542	-9.11173	-73.9598	80.8793	21.4371	-6.06811	82.8329	25.9411	20.0494	58.3438	27.0997	6.53487	
